<svg xmlns="http://www.w3.org/2000/svg" xmlns:xlink="http://www.w3.org/1999/xlink" width="150" zoomAndPan="magnify" viewBox="0 0 112.5 37.5" height="50" preserveAspectRatio="xMidYMid meet" version="1.0"><defs><g/><clipPath id="262fd423f4"><path d="M 0.492188 0 L 111.511719 0 L 111.511719 37.007812 L 0.492188 37.007812 Z M 0.492188 0 " clip-rule="nonzero"/></clipPath><clipPath id="72c5719193"><path d="M 18.605469 12.710938 L 87.105469 12.710938 L 87.105469 19.707031 L 18.605469 19.707031 Z M 18.605469 12.710938 " clip-rule="nonzero"/></clipPath></defs><g clip-path="url(#262fd423f4)"><path fill="#ffffff" d="M 0.492188 0 L 112.007812 0 L 112.007812 43.863281 L 0.492188 43.863281 Z M 0.492188 0 " fill-opacity="1" fill-rule="nonzero"/><path fill="#ffffff" d="M 0.492188 0 L 112.007812 0 L 112.007812 37.171875 L 0.492188 37.171875 Z M 0.492188 0 " fill-opacity="1" fill-rule="nonzero"/><path fill="#ffffff" d="M 0.492188 0 L 112.007812 0 L 112.007812 37.171875 L 0.492188 37.171875 Z M 0.492188 0 " fill-opacity="1" fill-rule="nonzero"/></g><g fill="#231f20" fill-opacity="1"><g transform="translate(28.556156, 26.219668)"><g><path d="M 18.980469 -20.96875 L 10.375 -20.96875 L 10.375 -20.785156 C 13.824219 -18.113281 13.980469 -12.085938 12.707031 -9.910156 L 12.210938 -9.039062 L 7.488281 -19.167969 L 9.007812 -20.785156 L 9.007812 -20.96875 L 0.1875 -20.96875 L 0.1875 -20.785156 L 6.460938 -7.953125 L 6.460938 -1.925781 L 4.878906 -0.1875 L 4.878906 0 L 14.136719 0 L 14.136719 -0.1875 L 12.550781 -1.925781 L 12.550781 -8.234375 L 18.980469 -20.785156 Z M 18.980469 -20.96875 "/></g></g></g><g fill="#231f20" fill-opacity="1"><g transform="translate(46.757648, 26.219668)"><g><path d="M 9.691406 -14.351562 C 5.871094 -16.621094 4.347656 -17.460938 4.347656 -18.765625 C 4.347656 -19.480469 4.878906 -19.976562 5.902344 -19.976562 C 9.007812 -19.976562 13.328125 -17.023438 16.839844 -12.304688 L 17.023438 -12.304688 L 17.023438 -21.3125 L 16.871094 -21.3125 L 14.882812 -20.070312 C 13.730469 -20.785156 11.992188 -21.375 9.816406 -21.375 C 5.5 -21.375 1.988281 -19.789062 1.925781 -15.378906 C 1.863281 -11.992188 4.070312 -10.40625 6.679688 -8.855469 L 10.285156 -6.648438 C 13.234375 -4.910156 15.78125 -3.726562 15.78125 -2.328125 C 15.78125 -1.738281 15.378906 -1.117188 13.980469 -1.117188 C 11.621094 -1.117188 5.1875 -2.953125 1.429688 -10.40625 L 1.210938 -10.375 L 1.738281 -0.808594 C 4.535156 -0.402344 7.082031 0.621094 10.097656 0.621094 C 15.472656 0.621094 18.144531 -2.671875 18.144531 -5.996094 C 18.144531 -8.636719 16.433594 -10.3125 13.421875 -12.085938 Z M 9.691406 -14.351562 "/></g></g></g><g fill="#231f20" fill-opacity="1"><g transform="translate(64.9902, 26.219668)"><g><path d="M 18.050781 -20.96875 L 1.023438 -20.96875 L 1.023438 -20.785156 L 2.703125 -19.167969 L 2.671875 -1.925781 L 1.054688 -0.1875 L 1.054688 0 L 10.34375 0 L 10.34375 -0.1875 L 8.730469 -1.925781 L 8.730469 -9.941406 L 9.320312 -9.941406 C 11.027344 -9.941406 12.332031 -9.070312 14.382812 -5.25 L 14.570312 -5.25 L 14.570312 -15.160156 L 14.382812 -15.160156 C 12.332031 -11.058594 11.027344 -10.5 9.320312 -10.5 L 8.730469 -10.5 L 8.730469 -20.410156 L 8.980469 -20.410156 C 12.613281 -20.410156 13.328125 -19.355469 16.125 -14.851562 C 16.621094 -14.074219 17.210938 -13.171875 17.894531 -12.148438 L 18.050781 -12.148438 Z M 18.050781 -20.96875 "/></g></g></g><g clip-path="url(#72c5719193)"><path fill="#ffffff" d="M 18.605469 12.710938 L 87.238281 12.710938 L 87.238281 19.535156 L 18.605469 19.535156 Z M 18.605469 12.710938 " fill-opacity="1" fill-rule="nonzero"/></g><g fill="#231f20" fill-opacity="1"><g transform="translate(35.135282, 16.648431)"><g><path d="M 0.113281 0 L 1.109375 0 C 1.707031 0 2.042969 -0.285156 2.042969 -0.792969 C 2.042969 -1.304688 1.707031 -1.585938 1.109375 -1.585938 L 0.113281 -1.585938 Z M 0.417969 -0.234375 L 0.417969 -1.347656 L 1.082031 -1.347656 C 1.503906 -1.347656 1.738281 -1.152344 1.738281 -0.792969 C 1.738281 -0.433594 1.503906 -0.234375 1.082031 -0.234375 Z M 0.417969 -0.234375 "/></g></g></g><g fill="#231f20" fill-opacity="1"><g transform="translate(39.050416, 16.648431)"><g><path d="M 0.113281 0 L 1.710938 0 L 1.710938 -0.226562 L 0.414062 -0.226562 L 0.414062 -0.710938 L 1.601562 -0.710938 L 1.601562 -0.921875 L 0.414062 -0.921875 L 0.414062 -1.359375 L 1.691406 -1.359375 L 1.691406 -1.585938 L 0.113281 -1.585938 Z M 0.113281 0 "/></g></g></g><g fill="#231f20" fill-opacity="1"><g transform="translate(42.596609, 16.648431)"><g><path d="M 1.023438 0.0546875 C 1.519531 0.0546875 1.847656 -0.152344 1.847656 -0.457031 C 1.847656 -0.710938 1.644531 -0.847656 1.171875 -0.914062 L 0.800781 -0.964844 C 0.554688 -1 0.449219 -1.0625 0.449219 -1.167969 C 0.449219 -1.3125 0.644531 -1.414062 0.921875 -1.414062 C 1.195312 -1.414062 1.449219 -1.304688 1.570312 -1.144531 L 1.71875 -1.324219 C 1.574219 -1.511719 1.269531 -1.640625 0.917969 -1.640625 C 0.464844 -1.640625 0.140625 -1.453125 0.140625 -1.148438 C 0.140625 -0.902344 0.316406 -0.777344 0.730469 -0.722656 L 1.109375 -0.664062 C 1.414062 -0.621094 1.542969 -0.546875 1.542969 -0.429688 C 1.542969 -0.285156 1.339844 -0.175781 1.039062 -0.175781 C 0.667969 -0.175781 0.328125 -0.332031 0.210938 -0.558594 L 0.0429688 -0.378906 C 0.195312 -0.125 0.582031 0.0546875 1.023438 0.0546875 Z M 1.023438 0.0546875 "/></g></g></g><g fill="#231f20" fill-opacity="1"><g transform="translate(46.279199, 16.648431)"><g><path d="M 0.113281 0 L 0.421875 0 L 0.421875 -1.585938 L 0.113281 -1.585938 Z M 0.113281 0 "/></g></g></g><g fill="#231f20" fill-opacity="1"><g transform="translate(48.602297, 16.648431)"><g><path d="M 1.136719 0.0507812 C 1.519531 0.0507812 1.832031 -0.09375 1.992188 -0.324219 L 1.996094 -0.324219 L 2.015625 0 L 2.269531 0 L 2.269531 -0.886719 L 0.816406 -0.886719 L 0.816406 -0.6875 L 1.96875 -0.6875 C 1.960938 -0.398438 1.628906 -0.179688 1.210938 -0.179688 C 0.738281 -0.179688 0.394531 -0.433594 0.394531 -0.789062 C 0.394531 -1.148438 0.710938 -1.402344 1.152344 -1.398438 C 1.4375 -1.398438 1.707031 -1.269531 1.769531 -1.089844 L 2.058594 -1.15625 C 1.972656 -1.4375 1.585938 -1.636719 1.152344 -1.636719 C 0.527344 -1.636719 0.0859375 -1.28125 0.0859375 -0.78125 C 0.0859375 -0.296875 0.523438 0.0507812 1.136719 0.0507812 Z M 1.136719 0.0507812 "/></g></g></g><g fill="#231f20" fill-opacity="1"><g transform="translate(52.736561, 16.648431)"><g><path d="M 0.113281 0 L 0.410156 0 L 0.410156 -1.285156 L 0.414062 -1.285156 L 1.550781 0 L 1.941406 0 L 1.941406 -1.585938 L 1.636719 -1.585938 L 1.636719 -0.304688 L 0.5 -1.585938 L 0.113281 -1.585938 Z M 0.113281 0 "/></g></g></g><g fill="#231f20" fill-opacity="1"><g transform="translate(56.577907, 16.648431)"><g/></g></g><g fill="#231f20" fill-opacity="1"><g transform="translate(59.015041, 16.648431)"><g><path d="M 0.113281 0 L 1.328125 0 C 1.679688 0 1.910156 -0.175781 1.910156 -0.441406 C 1.910156 -0.621094 1.789062 -0.769531 1.609375 -0.8125 L 1.609375 -0.816406 C 1.765625 -0.863281 1.863281 -0.992188 1.863281 -1.15625 C 1.863281 -1.417969 1.648438 -1.585938 1.320312 -1.585938 L 0.113281 -1.585938 Z M 0.421875 -0.914062 L 0.421875 -1.375 L 1.246094 -1.375 C 1.433594 -1.375 1.554688 -1.289062 1.554688 -1.144531 C 1.554688 -1.003906 1.433594 -0.914062 1.246094 -0.914062 Z M 0.421875 -0.210938 L 0.421875 -0.71875 L 1.25 -0.71875 C 1.460938 -0.71875 1.597656 -0.617188 1.597656 -0.464844 C 1.597656 -0.3125 1.460938 -0.210938 1.25 -0.210938 Z M 0.421875 -0.210938 "/></g></g></g><g fill="#231f20" fill-opacity="1"><g transform="translate(62.760239, 16.648431)"><g><path d="M 0.789062 0 L 1.097656 0 L 1.097656 -0.574219 L 1.878906 -1.585938 L 1.523438 -1.585938 L 0.945312 -0.8125 L 0.941406 -0.8125 L 0.355469 -1.585938 L -0.00390625 -1.585938 L 0.789062 -0.574219 Z M 0.789062 0 "/></g></g></g><g fill="#231f20" fill-opacity="1"><g transform="translate(66.427176, 16.648431)"><g/></g></g><g fill="#231f20" fill-opacity="1"><g transform="translate(68.86431, 16.648431)"><g><path d="M 0.113281 0 L 0.410156 0 L 0.410156 -1.261719 L 0.417969 -1.261719 L 1.105469 0 L 1.417969 0 L 2.101562 -1.261719 L 2.105469 -1.261719 L 2.105469 0 L 2.40625 0 L 2.40625 -1.585938 L 1.96875 -1.585938 L 1.261719 -0.28125 L 1.257812 -0.28125 L 0.542969 -1.585938 L 0.113281 -1.585938 Z M 0.113281 0 "/></g></g></g><g fill="#231f20" fill-opacity="1"><g transform="translate(73.170746, 16.648431)"><g><path d="M 0.113281 0 L 1.710938 0 L 1.710938 -0.226562 L 0.414062 -0.226562 L 0.414062 -0.710938 L 1.601562 -0.710938 L 1.601562 -0.921875 L 0.414062 -0.921875 L 0.414062 -1.359375 L 1.691406 -1.359375 L 1.691406 -1.585938 L 0.113281 -1.585938 Z M 0.113281 0 "/></g></g></g><g fill="#231f20" fill-opacity="1"><g transform="translate(76.716169, 16.648431)"><g/></g></g></svg>